<?xml version="1.0" encoding="utf-8"?>
<!-- Generator: Adobe Illustrator 22.0.0, SVG Export Plug-In . SVG Version: 6.00 Build 0)  -->
<svg version="1.1" id="Layer_1" xmlns="http://www.w3.org/2000/svg" xmlns:xlink="http://www.w3.org/1999/xlink" x="0px" y="0px"
	 viewBox="0 0 400 400" style="enable-background:new 0 0 400 400;" xml:space="preserve">
<style type="text/css">
	.st0{fill:#8AB9A2;}
	.st1{fill:#269CD7;}
	.st2{fill:#8DBAA4;}
	.st3{fill:none;stroke:#232323;stroke-width:6;stroke-linecap:round;stroke-linejoin:round;stroke-miterlimit:10;}
	.st4{fill:none;stroke:#1A171B;stroke-width:6;stroke-linecap:round;stroke-linejoin:round;stroke-miterlimit:10;}
	.st5{fill:#269CD7;stroke:#232323;stroke-width:6;stroke-linecap:round;stroke-linejoin:round;stroke-miterlimit:10;}
	.st6{fill:none;stroke:#231F20;stroke-width:6;stroke-linecap:round;stroke-linejoin:round;stroke-miterlimit:10;}
	.st7{fill:#232323;}
	.st8{fill:none;stroke:#1E1E1E;stroke-width:6;stroke-linecap:round;stroke-linejoin:round;stroke-miterlimit:10;}
	.st9{fill:#D4EBF7;}
	.st10{fill:none;stroke:#000000;stroke-width:6;stroke-linecap:round;stroke-linejoin:round;stroke-miterlimit:10;}
	.st11{fill:#A8D7EF;stroke:#000000;stroke-width:6;stroke-linecap:round;stroke-linejoin:round;stroke-miterlimit:10;}
	.st12{fill:#99C2AE;stroke:#000000;stroke-width:6;stroke-linecap:round;stroke-linejoin:round;stroke-miterlimit:10;}
	.st13{fill:#FFFFFF;stroke:#000000;stroke-width:6;stroke-linecap:round;stroke-linejoin:round;stroke-miterlimit:10;}
	.st14{fill:#D9E8E1;stroke:#000000;stroke-width:6;stroke-linecap:round;stroke-linejoin:round;stroke-miterlimit:10;}
	.st15{fill:#FFFFFF;stroke:#231F20;stroke-width:6;stroke-linecap:round;stroke-linejoin:round;stroke-miterlimit:10;}
	.st16{fill:#9FD3EE;stroke:#231F20;stroke-width:6;stroke-linecap:round;stroke-linejoin:round;stroke-miterlimit:10;}
	.st17{fill:#99C2AE;}
	.st18{fill:#D9E8E1;stroke:#1A171B;stroke-width:6;stroke-linecap:round;stroke-linejoin:round;stroke-miterlimit:10;}
	.st19{fill:#FFFFFF;stroke:#1A171B;stroke-width:6;stroke-linecap:round;stroke-linejoin:round;stroke-miterlimit:10;}
	.st20{fill:#BEE1F3;}
	.st21{fill:#FFFFFF;stroke:#232323;stroke-width:6;stroke-miterlimit:10;}
	.st22{fill:none;stroke:#231F20;stroke-width:6;stroke-miterlimit:10;}
	.st23{fill:none;stroke:#000000;stroke-width:6;stroke-miterlimit:10;}
	.st24{fill:#FFFFFF;stroke:#000000;stroke-width:6;stroke-miterlimit:10;}
	.st25{fill:#A8D7EF;}
	.st26{fill:#B3D1C2;stroke:#232323;stroke-width:6;stroke-linecap:round;stroke-linejoin:round;stroke-miterlimit:10;}
	.st27{fill:#8DBAA4;stroke:#232323;stroke-width:6;stroke-linecap:round;stroke-linejoin:round;stroke-miterlimit:10;}
	.st28{fill:none;stroke:#1E1E1E;stroke-width:5.9319;stroke-linecap:round;stroke-linejoin:round;stroke-miterlimit:10;}
	.st29{fill:#FFFFFF;stroke:#1E1E1E;stroke-width:6;stroke-linecap:round;stroke-linejoin:round;stroke-miterlimit:10;}
	.st30{fill:#8DBAA4;stroke:#1E1E1E;stroke-width:6;stroke-linecap:round;stroke-linejoin:round;stroke-miterlimit:10;}
	.st31{fill:#269CD7;stroke:#1E1E1E;stroke-width:6;stroke-linecap:round;stroke-linejoin:round;stroke-miterlimit:10;}
	.st32{fill:none;stroke:#8AB9A2;stroke-width:6;stroke-linecap:round;stroke-linejoin:round;stroke-miterlimit:10;}
	.st33{fill:none;stroke:#8DBAA4;stroke-width:6;stroke-linecap:round;stroke-linejoin:round;stroke-miterlimit:10;}
	.st34{fill:none;stroke:#269CD7;stroke-width:6;stroke-linecap:round;stroke-linejoin:round;stroke-miterlimit:10;}
</style>
<g>
	<path class="st2" d="M109.8,103.9c5.8,7.2,9.2,16.1,9.5,25.3c0.3,9.2-2.4,18.3-7.8,25.8c-19.3-7.7-34-19.8-39.1-24.3
		C77.2,125.9,91.1,112.8,109.8,103.9z"/>
	<g>
		<g>
			<path class="st3" d="M112.8,99.7c9.6-4.1,20.4-7.1,31.8-7.5c42.6-1.4,78.3,33.6,78.3,33.6s-33.3,37.3-75.9,38.7
				c-42.6,1.4-78.3-33.6-78.3-33.6S86.6,110.9,112.8,99.7"/>
			<path class="st3" d="M122,97.2c7.1,9,11.2,20,11.6,31.5c0.4,11.5-3,22.8-9.5,32.2"/>
			<path class="st3" d="M110.5,100.7c6.8,7.6,11,17.5,11.4,28.4c0.4,10.9-3.2,21.1-9.5,29.1"/>
			<path class="st7" d="M102.3,115.2c2.6-0.1,4.7,1.9,4.8,4.5c0.1,2.6-1.9,4.7-4.5,4.8c-2.6,0.1-4.7-1.9-4.8-4.5
				C97.7,117.4,99.8,115.2,102.3,115.2z"/>
		</g>
		<polygon class="st5" points="248.3,139.4 222.9,125.8 247.3,110.6 		"/>
	</g>
</g>
<g>
	<line class="st8" x1="315" y1="119.3" x2="315" y2="63.6"/>
	<polyline class="st8" points="294.9,82.7 315,63.6 335.1,82.7 	"/>
</g>
<g>
	<path class="st26" d="M212.2,287.2c0,0,6.8-8.3,19.7-9c12.9-0.7,22.7,6.7,22.7,6.7s-7.4,9.1-20.7,9.8
		C220.6,295.4,212.2,287.2,212.2,287.2z"/>
	<path class="st26" d="M203.9,279.8c0,0,7.5-7.6,6.8-20.6c-0.7-12.9-9.1-21.8-9.1-21.8s-8.2,8.4-7.5,21.7
		C194.8,272.3,203.9,279.8,203.9,279.8z"/>
	<path class="st26" d="M234.5,261.9c0,0,6.8-8.3,19.7-9c12.9-0.7,22.7,6.7,22.7,6.7s-7.4,9.1-20.7,9.8
		C242.9,270.1,234.5,261.9,234.5,261.9z"/>
	<path class="st26" d="M226.1,254.4c0,0,7.5-7.6,6.8-20.6c-0.7-12.9-9.1-21.8-9.1-21.8s-8.2,8.4-7.5,21.7
		C217.1,247,226.1,254.4,226.1,254.4z"/>
	<path class="st26" d="M257.4,239.4c0,0,6.8-8.3,19.7-9c12.9-0.7,22.7,6.7,22.7,6.7s-7.4,9.1-20.7,9.8
		C265.8,247.5,257.4,239.4,257.4,239.4z"/>
	<path class="st26" d="M268.3,218c0,0-1-10.7,7.8-20.2c8.7-9.6,20.9-11.1,20.9-11.1s1,11.7-8,21.5C280.1,218,268.3,218,268.3,218z"
		/>
	<path class="st26" d="M249,231.9c0,0,7.5-7.6,6.8-20.6c-0.7-12.9-9.1-21.8-9.1-21.8s-8.2,8.4-7.5,21.7
		C240,224.5,249,231.9,249,231.9z"/>
	<line class="st3" x1="199.5" y1="292.1" x2="183.8" y2="308.1"/>
</g>
</svg>
