<?xml version="1.0" encoding="utf-8"?>
<!-- Generator: Adobe Illustrator 21.0.2, SVG Export Plug-In . SVG Version: 6.00 Build 0)  -->
<svg version="1.1" id="Layer_1" xmlns="http://www.w3.org/2000/svg" xmlns:xlink="http://www.w3.org/1999/xlink" x="0px" y="0px"
	 width="400px" height="400px" viewBox="0 0 400 400" style="enable-background:new 0 0 400 400;" xml:space="preserve">
<style type="text/css">
	.st0{fill:#009EE5;}
	.st1{fill:#8CBAA3;}
	.st2{fill:#B2D1C2;}
	.st3{fill:none;stroke:#232323;stroke-width:6;stroke-linecap:round;stroke-linejoin:round;stroke-miterlimit:10;}
	.st4{fill:#D9E8E0;}
	.st5{fill:#B2E2F7;}
	.st6{fill:#B2E2F7;stroke:#232323;stroke-width:6;stroke-linecap:round;stroke-linejoin:round;stroke-miterlimit:10;}
	.st7{fill:none;stroke:#009EE5;stroke-width:6;stroke-miterlimit:10;}
	.st8{fill:none;stroke:#8CBAA3;stroke-width:6;stroke-linecap:round;stroke-linejoin:round;stroke-miterlimit:10;}
	.st9{fill:#009EE5;stroke:#232323;stroke-width:6;stroke-linecap:round;stroke-linejoin:round;stroke-miterlimit:10;}
	.st10{fill:#FFFFFF;stroke:#232323;stroke-width:6;stroke-linecap:round;stroke-linejoin:round;stroke-miterlimit:10;}
	.st11{fill:none;stroke:#009EE5;stroke-width:6;stroke-linecap:round;stroke-linejoin:round;stroke-miterlimit:10;}
	.st12{fill:none;stroke:#B2D1C2;stroke-width:6;stroke-linecap:round;stroke-linejoin:round;stroke-miterlimit:10;}
	.st13{fill:#8CBAA3;stroke:#232323;stroke-width:6;stroke-linecap:round;stroke-linejoin:round;stroke-miterlimit:10;}
	.st14{fill:#232323;}
</style>
<rect x="305.1" y="201.4" class="st0" width="19.6" height="30.2"/>
<rect x="63" y="201.4" class="st1" width="76.6" height="30.2"/>
<polyline class="st3" points="211.2,201.4 294.2,201.4 294.2,231.7 170.7,231.7 "/>
<polyline class="st3" points="139.6,231.7 63,231.7 63,201.4 178.7,201.4 "/>
<rect x="305.1" y="201.4" class="st3" width="19.6" height="30.2"/>
<line class="st3" x1="335.5" y1="201.4" x2="335.5" y2="231.7"/>
<path class="st3" d="M257.7,105.2c4.9-4.9,11.6-7.9,19-7.9c10,0,18.7,5.5,23.3,13.5"/>
<path class="st3" d="M305.1,131.8c0.4,0,0.9,0,1.3,0c16.4,0,29.8,13.3,29.8,29.8c0,10.3-5.2,19.3-13.1,24.7"/>
<path class="st3" d="M275.3,153.6c12.5,2.7,23.8,7.2,23.8,19"/>
<path class="st3" d="M233.1,96c-6,20-6.7,40.7,14,51.3c0.6,0.3,1.3,0.6,2,0.9"/>
<line class="st3" x1="139.6" y1="216.6" x2="139.6" y2="231.7"/>
<line class="st3" x1="335.5" y1="96" x2="63" y2="302"/>
</svg>
