<?xml version="1.0" encoding="utf-8"?>
<!-- Generator: Adobe Illustrator 21.0.2, SVG Export Plug-In . SVG Version: 6.00 Build 0)  -->
<svg version="1.1" id="Layer_1" xmlns="http://www.w3.org/2000/svg" xmlns:xlink="http://www.w3.org/1999/xlink" x="0px" y="0px"
	 width="400px" height="400px" viewBox="0 0 400 400" style="enable-background:new 0 0 400 400;" xml:space="preserve">
<style type="text/css">
	.st0{fill:#009EE5;}
	.st1{fill:#8CBAA3;}
	.st2{fill:#009EE5;stroke:#232323;stroke-width:6;stroke-linecap:round;stroke-linejoin:round;stroke-miterlimit:10;}
	.st3{fill:none;stroke:#232323;stroke-width:6;stroke-linecap:round;stroke-linejoin:round;stroke-miterlimit:10;}
	.st4{fill:none;stroke:#009EE5;stroke-width:6;stroke-linecap:round;stroke-linejoin:round;stroke-miterlimit:10;}
	.st5{fill:#8CBAA3;stroke:#1E1E1E;stroke-width:6;stroke-linecap:round;stroke-linejoin:round;stroke-miterlimit:10;}
	.st6{fill:none;stroke:#1E1E1E;stroke-width:6;stroke-linecap:round;stroke-linejoin:round;stroke-miterlimit:10;}
	.st7{fill:none;stroke:#8CBAA3;stroke-width:6;stroke-linecap:round;stroke-linejoin:round;stroke-miterlimit:10;}
	.st8{fill:none;stroke:#8AB9A1;stroke-width:6;stroke-linecap:round;stroke-linejoin:round;stroke-miterlimit:10;}
	.st9{fill:#FFFFFF;stroke:#232323;stroke-width:6;stroke-linecap:round;stroke-linejoin:round;stroke-miterlimit:10;}
	.st10{fill:#FFFFFF;}
	.st11{fill:#009EE5;stroke:#1E1E1E;stroke-width:6;stroke-linecap:round;stroke-linejoin:round;stroke-miterlimit:10;}
	.st12{fill:none;stroke:#A7A5A6;stroke-width:6;stroke-linecap:round;stroke-linejoin:round;stroke-miterlimit:10;}
	.st13{fill:none;stroke:#FFFFFF;stroke-width:6;stroke-linecap:round;stroke-linejoin:round;stroke-miterlimit:10;}
	.st14{fill:none;stroke:#231F20;stroke-width:6;stroke-linecap:round;stroke-linejoin:round;stroke-miterlimit:10;}
	.st15{fill:#FFFFFF;stroke:#1E1E1E;stroke-width:6;stroke-linecap:round;stroke-linejoin:round;stroke-miterlimit:10;}
	.st16{fill:none;stroke:#B2D1C2;stroke-width:6;stroke-linecap:round;stroke-linejoin:round;stroke-miterlimit:10;}
	.st17{fill:#231F20;stroke:#231F20;stroke-width:1.5;stroke-miterlimit:10;}
	.st18{fill:none;stroke:#1E1E1E;stroke-width:5.9319;stroke-linecap:round;stroke-linejoin:round;stroke-miterlimit:10;}
	.st19{opacity:0.5;}
	.st20{fill:#87B79F;stroke:#1E1E1E;stroke-width:6;stroke-linecap:round;stroke-linejoin:round;stroke-miterlimit:10;}
	.st21{fill:none;stroke:#232323;stroke-width:5;stroke-linecap:round;stroke-linejoin:round;stroke-miterlimit:10;}
	.st22{fill:#8CBAA3;stroke:#232323;stroke-width:6;stroke-linecap:round;stroke-linejoin:round;stroke-miterlimit:10;}
	.st23{fill:#009EE5;stroke:#1F191A;stroke-width:6;stroke-linecap:round;stroke-linejoin:round;stroke-miterlimit:10;}
	.st24{fill:none;stroke:#1F191A;stroke-width:6;stroke-linecap:round;stroke-linejoin:round;stroke-miterlimit:10;}
	.st25{fill:#232323;}
	.st26{fill:#232323;stroke:#232323;stroke-width:2;stroke-miterlimit:10;}
</style>
<polygon class="st1" points="265.1,140.1 253.1,137.4 242.1,140.9 239.8,145.2 250.7,154.5 262.3,161.4 269.6,162.2 274.6,160 
	278,156.6 273.4,146.4 "/>
<path class="st3" d="M222.8,204c-3.2,10.3-2.1,20.9,2.7,29.8"/>
<path class="st3" d="M253.2,188c-9.6,7.5-23.4,5.8-30.9-3.8c-7.5-9.6-5.8-23.4,3.8-30.8l15.5-12.1c4.6-3.6,10.4-5.2,16.2-4.5
	c5.8,0.7,11.1,3.7,14.6,8.3c7.5,9.6,5.8,23.4-3.8,30.9L253.2,188z"/>
<path class="st3" d="M276.9,161.2c0,0-11.7,7.6-38.5-17.5"/>
<path class="st3" d="M115.5,228.4l49.4-49.2c-4.8-6.6-12.2-12.2-20.1-14.7c-9.6-3-19.9-2.1-28.8,2.6c-5.2,2.7-11.3,1.6-15.2-2.3
	c-0.9-0.9-1.7-2-2.3-3.2c-3.3-6.4-0.9-14.2,5.5-17.6c15.1-7.9,32.4-9.5,48.7-4.4c12.1,3.8,16.5,6.6,30.3,20.4l15,15"/>
<path class="st3" d="M249.6,224.2c12.1-6.4,30.6-5.3,40.6,3.2c11.3,9.7,34,9.7,45.3,0"/>
<path class="st3" d="M63.7,227.4c11.3-9.7,34-9.7,45.3,0c11.3,9.7,34,9.7,45.3,0c11.3-9.7,34-9.7,45.3,0c11.3,9.7,34,9.7,45.3,0
	c1.4-1.2,3-2.3,4.7-3.2"/>
<path class="st3" d="M249.6,252.5c12.1-6.4,30.6-5.3,40.6,3.2c11.3,9.7,34,9.7,45.3,0"/>
<path class="st3" d="M63.7,255.7c11.3-9.7,34-9.7,45.3,0c11.3,9.7,34,9.7,45.3,0c11.3-9.7,34-9.7,45.3,0c11.3,9.7,34,9.7,45.3,0
	c1.4-1.2,3-2.3,4.7-3.2"/>
</svg>
