<?xml version="1.0" encoding="utf-8"?>
<!-- Generator: Adobe Illustrator 22.0.0, SVG Export Plug-In . SVG Version: 6.00 Build 0)  -->
<svg version="1.1" id="Layer_1" xmlns="http://www.w3.org/2000/svg" xmlns:xlink="http://www.w3.org/1999/xlink" x="0px" y="0px"
	 viewBox="0 0 400 400" style="enable-background:new 0 0 400 400;" xml:space="preserve">
<style type="text/css">
	.st0{fill:#8AB9A2;}
	.st1{fill:#269CD7;}
	.st2{fill:#8DBAA4;}
	.st3{fill:none;stroke:#232323;stroke-width:6;stroke-linecap:round;stroke-linejoin:round;stroke-miterlimit:10;}
	.st4{fill:none;stroke:#1A171B;stroke-width:6;stroke-linecap:round;stroke-linejoin:round;stroke-miterlimit:10;}
	.st5{fill:#269CD7;stroke:#232323;stroke-width:6;stroke-linecap:round;stroke-linejoin:round;stroke-miterlimit:10;}
	.st6{fill:none;stroke:#231F20;stroke-width:6;stroke-linecap:round;stroke-linejoin:round;stroke-miterlimit:10;}
	.st7{fill:#232323;}
	.st8{fill:none;stroke:#1E1E1E;stroke-width:6;stroke-linecap:round;stroke-linejoin:round;stroke-miterlimit:10;}
	.st9{fill:#D4EBF7;}
	.st10{fill:none;stroke:#000000;stroke-width:6;stroke-linecap:round;stroke-linejoin:round;stroke-miterlimit:10;}
	.st11{fill:#A8D7EF;stroke:#000000;stroke-width:6;stroke-linecap:round;stroke-linejoin:round;stroke-miterlimit:10;}
	.st12{fill:#99C2AE;stroke:#000000;stroke-width:6;stroke-linecap:round;stroke-linejoin:round;stroke-miterlimit:10;}
	.st13{fill:#FFFFFF;stroke:#000000;stroke-width:6;stroke-linecap:round;stroke-linejoin:round;stroke-miterlimit:10;}
	.st14{fill:#D9E8E1;stroke:#000000;stroke-width:6;stroke-linecap:round;stroke-linejoin:round;stroke-miterlimit:10;}
	.st15{fill:#FFFFFF;stroke:#231F20;stroke-width:6;stroke-linecap:round;stroke-linejoin:round;stroke-miterlimit:10;}
	.st16{fill:#9FD3EE;stroke:#231F20;stroke-width:6;stroke-linecap:round;stroke-linejoin:round;stroke-miterlimit:10;}
	.st17{fill:#99C2AE;}
	.st18{fill:#D9E8E1;stroke:#1A171B;stroke-width:6;stroke-linecap:round;stroke-linejoin:round;stroke-miterlimit:10;}
	.st19{fill:#FFFFFF;stroke:#1A171B;stroke-width:6;stroke-linecap:round;stroke-linejoin:round;stroke-miterlimit:10;}
	.st20{fill:#BEE1F3;}
	.st21{fill:#FFFFFF;stroke:#232323;stroke-width:6;stroke-miterlimit:10;}
	.st22{fill:none;stroke:#231F20;stroke-width:6;stroke-miterlimit:10;}
	.st23{fill:none;stroke:#000000;stroke-width:6;stroke-miterlimit:10;}
	.st24{fill:#FFFFFF;stroke:#000000;stroke-width:6;stroke-miterlimit:10;}
	.st25{fill:#A8D7EF;}
	.st26{fill:#B3D1C2;stroke:#232323;stroke-width:6;stroke-linecap:round;stroke-linejoin:round;stroke-miterlimit:10;}
	.st27{fill:#8DBAA4;stroke:#232323;stroke-width:6;stroke-linecap:round;stroke-linejoin:round;stroke-miterlimit:10;}
	.st28{fill:none;stroke:#1E1E1E;stroke-width:5.9319;stroke-linecap:round;stroke-linejoin:round;stroke-miterlimit:10;}
	.st29{fill:#FFFFFF;stroke:#1E1E1E;stroke-width:6;stroke-linecap:round;stroke-linejoin:round;stroke-miterlimit:10;}
	.st30{fill:#8DBAA4;stroke:#1E1E1E;stroke-width:6;stroke-linecap:round;stroke-linejoin:round;stroke-miterlimit:10;}
	.st31{fill:#269CD7;stroke:#1E1E1E;stroke-width:6;stroke-linecap:round;stroke-linejoin:round;stroke-miterlimit:10;}
	.st32{fill:none;stroke:#8AB9A2;stroke-width:6;stroke-linecap:round;stroke-linejoin:round;stroke-miterlimit:10;}
	.st33{fill:none;stroke:#8DBAA4;stroke-width:6;stroke-linecap:round;stroke-linejoin:round;stroke-miterlimit:10;}
	.st34{fill:none;stroke:#269CD7;stroke-width:6;stroke-linecap:round;stroke-linejoin:round;stroke-miterlimit:10;}
</style>
<g>
	<path class="st17" d="M227.6,183c0,0-3.5,46.1-23.4,58.7l17.1,16.2c0,0,31.6-28.9,62.7-19.7l1.6-12.5l-50.6-43L227.6,183z"/>
	<path class="st13" d="M235.1,182.7c0,0-30.4,5.3-30.9-23.2c-0.4-25,33.3-33,47-8.4c0,0,21.3-16.2,46.4-2.5
		c25.1,13.7,24,46.3,20.6,52.2c0,0,31.1,18.3,7.5,42.9c-14.2,14.8-42.3,5.4-42.8-14.2c0,0-8.9-1.6-12.7-8.2
		c-3.8-6.6-0.9-14.2-0.9-14.2s-12.6,6.8-24.5-3.8C234.9,194.5,235.1,182.7,235.1,182.7z"/>
	<path class="st10" d="M284.1,238.2c-27.8-11.6-61.8,18.9-61.8,18.9l-16.6-15.3c25.7-22.7,21.9-58.8,21.9-58.8"/>
	<path class="st10" d="M238,195.8c0,0,3,15.2-8.6,26.3"/>
	<path class="st10" d="M269.3,222c0,0-19.8-5.6-39.9,16"/>
	<path class="st10" d="M216.7,154.8c0,0-1.6,17.8,17.2,16.6"/>
	<path class="st10" d="M304.1,209.6c-1.8,2.1-3.1,7.4-1.4,11"/>
	<path class="st10" d="M301.8,213.3c0,0-8.4,6.8-16.1,0.3"/>
	<path class="st10" d="M265,166.3c0,0,8.2-7.4,19.8-2.5"/>
</g>
<g>
	<path class="st14" d="M152.7,185.4c-6.6-4.2-8.5-12.9-4.3-19.5c4.2-6.6,12.9-8.5,19.5-4.4c6.6,4.2,8.5,12.9,4.4,19.5
		C168,187.6,159.3,189.5,152.7,185.4z"/>
	<path class="st14" d="M158.8,147.8c-6.6-4.2-8.5-12.9-4.4-19.5c4.2-6.6,12.9-8.5,19.5-4.4c6.6,4.2,8.5,12.9,4.4,19.5
		C174.2,150,165.4,152,158.8,147.8z"/>
	<path class="st22" d="M133.7,139.7c-0.5-12.9-21.5-3-18.6-25.5c1-7.9-16-19-23.6-0.7c0,0-12,32,20.7,40.4
		C118.4,155.4,134.3,155.5,133.7,139.7z"/>
	<path class="st22" d="M166.5,66c-13.7,0.6-5,22.3-27.4,18.4c-7.8-1.4-19.6,15.3-1.7,23.6c0,0,31.4,13.3,41.2-19
		C180.5,82.9,181.7,65.4,166.5,66z"/>
	<path class="st10" d="M161.2,135.6c0.8,2.1,4,5.1,7.1,5.2"/>
	<path class="st10" d="M165.6,174.4c-0.6-2.2-3.6-5.4-6.7-5.8"/>
	<path class="st10" d="M168.2,81.3c0,0,2.9,10.4-6.2,14.9"/>
	<path class="st10" d="M108.6,142.9c0,0-9.9-4.4-7.6-14.2"/>
</g>
<g>
	<path class="st12" d="M106.8,214.7c0,0-10.2-15.7-39.8-8c0,0,4.3,14.5,21.1,14.7"/>
	<path class="st23" d="M62.2,262.8c0-25.4,20.6-46,46-46c25.4,0,46,20.6,46,46c0,25.4-20.6,46-46,46
		C82.8,308.8,62.2,288.2,62.2,262.8z"/>
	<path class="st24" d="M115.1,293c0-23.6,19.1-42.8,42.8-42.8s42.8,19.1,42.8,42.8c0,23.6-19.1,42.8-42.8,42.8
		S115.1,316.6,115.1,293z"/>
	<line class="st23" x1="157.9" y1="259.5" x2="157.9" y2="326.5"/>
	<line class="st23" x1="135.1" y1="270.5" x2="181.8" y2="316.4"/>
	<line class="st23" x1="135.1" y1="315.2" x2="180.6" y2="270.5"/>
	<g>
		<path class="st17" d="M95,289.1c-0.2,1.6-1.6,2.8-3.3,2.6c-1.6-0.2-2.8-1.6-2.6-3.3c0.2-1.6,1.6-2.8,3.3-2.6
			C94,286.1,95.1,287.5,95,289.1z"/>
	</g>
	<g>
		<path class="st17" d="M100.9,295.1c-0.2,1.6-1.6,2.8-3.3,2.6c-1.6-0.2-2.8-1.6-2.6-3.3c0.2-1.6,1.6-2.8,3.3-2.6
			C99.9,292,101,293.4,100.9,295.1z"/>
	</g>
	<g>
		<path class="st17" d="M106.8,289.1c-0.2,1.6-1.6,2.8-3.3,2.6c-1.6-0.2-2.8-1.6-2.6-3.3c0.2-1.6,1.6-2.8,3.3-2.6
			C105.8,286.1,107,287.5,106.8,289.1z"/>
	</g>
	<path class="st10" d="M106.9,216.9c0,0-1.2-9.9,8.7-17.6"/>
	<path class="st10" d="M106.8,214.7c0,0-10.2-15.7-39.8-8c0,0,4.3,14.5,21.1,14.7"/>
	<path class="st10" d="M73.7,254c0,0,0-20.2,22.3-25.9"/>
	
		<ellipse transform="matrix(0.7071 -0.7071 0.7071 0.7071 -160.922 197.4576)" class="st23" cx="157.9" cy="293" rx="33.5" ry="33.5"/>
	<line class="st23" x1="124.4" y1="293" x2="190.4" y2="293"/>
	<path class="st24" d="M154.6,293c0-1.8,1.5-3.3,3.3-3.3c1.8,0,3.3,1.5,3.3,3.3c0,1.8-1.5,3.3-3.3,3.3
		C156.1,296.3,154.6,294.8,154.6,293z"/>
	<g>
		<path class="st25" d="M122.6,292.8c0-19.2,15.6-34.8,34.8-34.8c19.2,0,34.8,15.6,34.8,34.8c0,19.2-15.6,34.8-34.8,34.8
			C138.2,327.6,122.6,312,122.6,292.8z"/>
	</g>
	<g>
		<path class="st17" d="M169.7,312.5c-0.2,1.5-1.5,2.6-3,2.4c-1.5-0.2-2.6-1.5-2.4-3c0.2-1.5,1.5-2.6,3-2.4
			C168.8,309.6,169.9,310.9,169.7,312.5z"/>
	</g>
	<g>
		<path class="st17" d="M181.8,302.1c-0.2,1.5-1.5,2.6-3,2.4c-1.5-0.2-2.6-1.5-2.4-3c0.2-1.5,1.5-2.6,3-2.4
			C180.9,299.2,182,300.6,181.8,302.1z"/>
	</g>
</g>
</svg>
