<?xml version="1.0" encoding="utf-8"?>
<!-- Generator: Adobe Illustrator 22.0.0, SVG Export Plug-In . SVG Version: 6.00 Build 0)  -->
<svg version="1.1" id="Layer_1" xmlns="http://www.w3.org/2000/svg" xmlns:xlink="http://www.w3.org/1999/xlink" x="0px" y="0px"
	 viewBox="0 0 400 400" style="enable-background:new 0 0 400 400;" xml:space="preserve">
<style type="text/css">
	.st0{fill:#8AB9A2;}
	.st1{fill:#269CD7;}
	.st2{fill:#8DBAA4;}
	.st3{fill:none;stroke:#232323;stroke-width:6;stroke-linecap:round;stroke-linejoin:round;stroke-miterlimit:10;}
	.st4{fill:none;stroke:#1A171B;stroke-width:6;stroke-linecap:round;stroke-linejoin:round;stroke-miterlimit:10;}
	.st5{fill:#269CD7;stroke:#232323;stroke-width:6;stroke-linecap:round;stroke-linejoin:round;stroke-miterlimit:10;}
	.st6{fill:none;stroke:#231F20;stroke-width:6;stroke-linecap:round;stroke-linejoin:round;stroke-miterlimit:10;}
	.st7{fill:#232323;}
	.st8{fill:none;stroke:#1E1E1E;stroke-width:6;stroke-linecap:round;stroke-linejoin:round;stroke-miterlimit:10;}
	.st9{fill:#D4EBF7;}
	.st10{fill:none;stroke:#000000;stroke-width:6;stroke-linecap:round;stroke-linejoin:round;stroke-miterlimit:10;}
	.st11{fill:#A8D7EF;stroke:#000000;stroke-width:6;stroke-linecap:round;stroke-linejoin:round;stroke-miterlimit:10;}
	.st12{fill:#99C2AE;stroke:#000000;stroke-width:6;stroke-linecap:round;stroke-linejoin:round;stroke-miterlimit:10;}
	.st13{fill:#FFFFFF;stroke:#000000;stroke-width:6;stroke-linecap:round;stroke-linejoin:round;stroke-miterlimit:10;}
	.st14{fill:#D9E8E1;stroke:#000000;stroke-width:6;stroke-linecap:round;stroke-linejoin:round;stroke-miterlimit:10;}
	.st15{fill:#FFFFFF;stroke:#231F20;stroke-width:6;stroke-linecap:round;stroke-linejoin:round;stroke-miterlimit:10;}
	.st16{fill:#9FD3EE;stroke:#231F20;stroke-width:6;stroke-linecap:round;stroke-linejoin:round;stroke-miterlimit:10;}
	.st17{fill:#99C2AE;}
	.st18{fill:#D9E8E1;stroke:#1A171B;stroke-width:6;stroke-linecap:round;stroke-linejoin:round;stroke-miterlimit:10;}
	.st19{fill:#FFFFFF;stroke:#1A171B;stroke-width:6;stroke-linecap:round;stroke-linejoin:round;stroke-miterlimit:10;}
	.st20{fill:#BEE1F3;}
	.st21{fill:#FFFFFF;stroke:#232323;stroke-width:6;stroke-miterlimit:10;}
	.st22{fill:none;stroke:#231F20;stroke-width:6;stroke-miterlimit:10;}
	.st23{fill:none;stroke:#000000;stroke-width:6;stroke-miterlimit:10;}
	.st24{fill:#FFFFFF;stroke:#000000;stroke-width:6;stroke-miterlimit:10;}
	.st25{fill:#A8D7EF;}
	.st26{fill:#B3D1C2;stroke:#232323;stroke-width:6;stroke-linecap:round;stroke-linejoin:round;stroke-miterlimit:10;}
	.st27{fill:#8DBAA4;stroke:#232323;stroke-width:6;stroke-linecap:round;stroke-linejoin:round;stroke-miterlimit:10;}
	.st28{fill:none;stroke:#1E1E1E;stroke-width:5.9319;stroke-linecap:round;stroke-linejoin:round;stroke-miterlimit:10;}
	.st29{fill:#FFFFFF;stroke:#1E1E1E;stroke-width:6;stroke-linecap:round;stroke-linejoin:round;stroke-miterlimit:10;}
	.st30{fill:#8DBAA4;stroke:#1E1E1E;stroke-width:6;stroke-linecap:round;stroke-linejoin:round;stroke-miterlimit:10;}
	.st31{fill:#269CD7;stroke:#1E1E1E;stroke-width:6;stroke-linecap:round;stroke-linejoin:round;stroke-miterlimit:10;}
	.st32{fill:none;stroke:#8AB9A2;stroke-width:6;stroke-linecap:round;stroke-linejoin:round;stroke-miterlimit:10;}
	.st33{fill:none;stroke:#8DBAA4;stroke-width:6;stroke-linecap:round;stroke-linejoin:round;stroke-miterlimit:10;}
	.st34{fill:none;stroke:#269CD7;stroke-width:6;stroke-linecap:round;stroke-linejoin:round;stroke-miterlimit:10;}
</style>
<path class="st18" d="M143.2,203.3c0,0,48.8-1.2,60.1,6.3c11.8,7.8,25.3,29.1-15.1,52.5c-40.4,23.4-85.4-1.2-90.3-21.7
	C93,219.9,97.9,201.1,143.2,203.3z"/>
<path class="st19" d="M130.3,205.5c0,0,33.8,35.2,35.9,48.6c2.2,13.9-4.4,38.3-49,24.3c-44.6-14-56.7-63.8-44.9-81.3
	C84.1,179.6,101.3,170.6,130.3,205.5z"/>
<path class="st19" d="M120.7,236.3c0,0,47.8,10.1,57,20c9.6,10.3,17.9,34.2-26.8,47.6c-44.7,13.5-82.8-20.9-82.8-41.9
	C68,240.9,77.1,223.8,120.7,236.3z"/>
<line class="st4" x1="82.1" y1="270.5" x2="89.6" y2="278"/>
<line class="st4" x1="94.8" y1="283.3" x2="96.4" y2="284.9"/>
<line class="st4" x1="171.1" y1="279" x2="172.9" y2="277.7"/>
<line class="st4" x1="142" y1="259.8" x2="143.9" y2="260.9"/>
<line class="st4" x1="88.6" y1="224.3" x2="90.6" y2="225.3"/>
<line class="st4" x1="165.5" y1="236.3" x2="167.5" y2="237.4"/>
<line class="st4" x1="128" y1="218.8" x2="120.8" y2="211"/>
<line class="st4" x1="115.7" y1="202.2" x2="114.2" y2="200.5"/>
<line class="st4" x1="186.7" y1="251" x2="195.9" y2="243.8"/>
<path class="st20" d="M303.8,126.3c-23.3-16.2-65.9-31.7-100.1-32.7c-15.2-0.5-50.8,1.2-55.7,24.7c0,0-4.8,14.8,8.1,19
	c20.3,6.6,140.1,45.8,160.4,52.4c12.9,4.2,17.7-10.5,17.7-10.5C344.1,157.3,316.8,135.4,303.8,126.3z"/>
<path class="st21" d="M195,95.4c0,0-4.3,12.3,2.7,14.5c7,2.3,13.1-15.7,13.1-15.7"/>
<path class="st21" d="M301.7,127c0,0-4.3,13.9-11.3,11.6c-7-2.3-1.3-20.4-1.3-20.4"/>
<path class="st21" d="M243.7,100.3c0,0-10.5,21.2,0.5,24.8c8.3,2.7,15.6-19.9,15.6-19.9"/>
<path class="st3" d="M303.7,126.6c-23.3-16.2-65.9-31.7-100.1-32.7c-15.2-0.5-50.8,1.2-55.7,24.7c0,0-4.8,14.8,8.1,19
	c20.3,6.6,140.1,45.8,160.4,52.4c12.9,4.2,17.7-10.5,17.7-10.5C344,157.6,316.7,135.7,303.7,126.6z"/>
</svg>
