<?xml version="1.0" encoding="utf-8"?>
<!-- Generator: Adobe Illustrator 22.0.0, SVG Export Plug-In . SVG Version: 6.00 Build 0)  -->
<svg version="1.1" id="Layer_1" xmlns="http://www.w3.org/2000/svg" xmlns:xlink="http://www.w3.org/1999/xlink" x="0px" y="0px"
	 viewBox="0 0 400 400" style="enable-background:new 0 0 400 400;" xml:space="preserve">
<style type="text/css">
	.st0{fill:#8AB9A2;}
	.st1{fill:#269CD7;}
	.st2{fill:#8DBAA4;}
	.st3{fill:none;stroke:#232323;stroke-width:6;stroke-linecap:round;stroke-linejoin:round;stroke-miterlimit:10;}
	.st4{fill:none;stroke:#1A171B;stroke-width:6;stroke-linecap:round;stroke-linejoin:round;stroke-miterlimit:10;}
	.st5{fill:#269CD7;stroke:#232323;stroke-width:6;stroke-linecap:round;stroke-linejoin:round;stroke-miterlimit:10;}
	.st6{fill:none;stroke:#231F20;stroke-width:6;stroke-linecap:round;stroke-linejoin:round;stroke-miterlimit:10;}
	.st7{fill:#232323;}
	.st8{fill:none;stroke:#1E1E1E;stroke-width:6;stroke-linecap:round;stroke-linejoin:round;stroke-miterlimit:10;}
	.st9{fill:#D4EBF7;}
	.st10{fill:none;stroke:#000000;stroke-width:6;stroke-linecap:round;stroke-linejoin:round;stroke-miterlimit:10;}
	.st11{fill:#A8D7EF;stroke:#000000;stroke-width:6;stroke-linecap:round;stroke-linejoin:round;stroke-miterlimit:10;}
	.st12{fill:#99C2AE;stroke:#000000;stroke-width:6;stroke-linecap:round;stroke-linejoin:round;stroke-miterlimit:10;}
	.st13{fill:#FFFFFF;stroke:#000000;stroke-width:6;stroke-linecap:round;stroke-linejoin:round;stroke-miterlimit:10;}
	.st14{fill:#D9E8E1;stroke:#000000;stroke-width:6;stroke-linecap:round;stroke-linejoin:round;stroke-miterlimit:10;}
	.st15{fill:#FFFFFF;stroke:#231F20;stroke-width:6;stroke-linecap:round;stroke-linejoin:round;stroke-miterlimit:10;}
	.st16{fill:#9FD3EE;stroke:#231F20;stroke-width:6;stroke-linecap:round;stroke-linejoin:round;stroke-miterlimit:10;}
	.st17{fill:#99C2AE;}
	.st18{fill:#D9E8E1;stroke:#1A171B;stroke-width:6;stroke-linecap:round;stroke-linejoin:round;stroke-miterlimit:10;}
	.st19{fill:#FFFFFF;stroke:#1A171B;stroke-width:6;stroke-linecap:round;stroke-linejoin:round;stroke-miterlimit:10;}
	.st20{fill:#BEE1F3;}
	.st21{fill:#FFFFFF;stroke:#232323;stroke-width:6;stroke-miterlimit:10;}
	.st22{fill:none;stroke:#231F20;stroke-width:6;stroke-miterlimit:10;}
	.st23{fill:none;stroke:#000000;stroke-width:6;stroke-miterlimit:10;}
	.st24{fill:#FFFFFF;stroke:#000000;stroke-width:6;stroke-miterlimit:10;}
	.st25{fill:#A8D7EF;}
	.st26{fill:#B3D1C2;stroke:#232323;stroke-width:6;stroke-linecap:round;stroke-linejoin:round;stroke-miterlimit:10;}
	.st27{fill:#8DBAA4;stroke:#232323;stroke-width:6;stroke-linecap:round;stroke-linejoin:round;stroke-miterlimit:10;}
	.st28{fill:none;stroke:#1E1E1E;stroke-width:5.9319;stroke-linecap:round;stroke-linejoin:round;stroke-miterlimit:10;}
	.st29{fill:#FFFFFF;stroke:#1E1E1E;stroke-width:6;stroke-linecap:round;stroke-linejoin:round;stroke-miterlimit:10;}
	.st30{fill:#8DBAA4;stroke:#1E1E1E;stroke-width:6;stroke-linecap:round;stroke-linejoin:round;stroke-miterlimit:10;}
	.st31{fill:#269CD7;stroke:#1E1E1E;stroke-width:6;stroke-linecap:round;stroke-linejoin:round;stroke-miterlimit:10;}
	.st32{fill:none;stroke:#8AB9A2;stroke-width:6;stroke-linecap:round;stroke-linejoin:round;stroke-miterlimit:10;}
	.st33{fill:none;stroke:#8DBAA4;stroke-width:6;stroke-linecap:round;stroke-linejoin:round;stroke-miterlimit:10;}
	.st34{fill:none;stroke:#269CD7;stroke-width:6;stroke-linecap:round;stroke-linejoin:round;stroke-miterlimit:10;}
</style>
<g>
	<path class="st4" d="M128.1,143c-0.6-0.8-0.3-2,0.5-2.5l54.4-35.9c0.8-0.6,2-0.3,2.5,0.5l49,91c0.6,0.8,0.3,2-0.5,2.5l-39.1,25.8
		c-0.8,0.6-2,0.3-2.5-0.5L128.1,143z"/>
	<g>
		<path class="st5" d="M247.3,216l-4.9-7.7l-40.7,26.8l4.8,7.6c3.5,5.4,9.1,9.2,15.4,10.5c6.3,1.3,12.9,0.1,18.3-3.5
			C251.5,242.4,254.7,227.3,247.3,216z"/>
	</g>
	<line class="st6" x1="167.2" y1="170.5" x2="189.6" y2="170.2"/>
	<line class="st6" x1="200.4" y1="170.1" x2="205.2" y2="170"/>
	<path class="st7" d="M241.2,279c-1.7-0.1-3.2,1.2-3.4,2.8c-0.1,0.8,0.2,1.6,0.8,2.3c0.6,0.6,1.3,1,2.1,1l0,0
		c1.8,0.1,3.2-1.1,3.4-2.8C244.3,280.6,243,279.1,241.2,279z M240.9,283.9L240.9,283.9L240.9,283.9L240.9,283.9z"/>
	<path class="st7" d="M264.5,287.8c-1.7-0.1-3.2,1.2-3.4,2.8c-0.1,0.8,0.2,1.6,0.8,2.3c0.6,0.6,1.3,1,2.1,1l0,0
		c1.8,0.1,3.2-1.1,3.4-2.8C267.6,289.4,266.3,287.9,264.5,287.8z M264.2,292.7L264.2,292.7L264.2,292.7L264.2,292.7z"/>
	<path class="st7" d="M269.3,263.5c-1.7-0.1-3.2,1.2-3.4,2.8c-0.1,0.8,0.2,1.6,0.8,2.3c0.6,0.6,1.3,1,2.1,1l0,0
		c1.8,0.1,3.2-1.1,3.4-2.8C272.4,265.1,271,263.6,269.3,263.5z M268.9,268.4L268.9,268.4L268.9,268.4L268.9,268.4z"/>
</g>
<g>
	<line class="st8" x1="315" y1="63.6" x2="315" y2="119.3"/>
	<polyline class="st8" points="335.1,100.1 315,119.3 294.9,100.1 	"/>
</g>
</svg>
