<?xml version="1.0" encoding="utf-8"?>
<!-- Generator: Adobe Illustrator 22.0.0, SVG Export Plug-In . SVG Version: 6.00 Build 0)  -->
<svg version="1.1" id="Layer_1" xmlns="http://www.w3.org/2000/svg" xmlns:xlink="http://www.w3.org/1999/xlink" x="0px" y="0px"
	 viewBox="0 0 400 400" style="enable-background:new 0 0 400 400;" xml:space="preserve">
<style type="text/css">
	.st0{fill:#8AB9A2;}
	.st1{fill:#269CD7;}
	.st2{fill:#8DBAA4;}
	.st3{fill:none;stroke:#232323;stroke-width:6;stroke-linecap:round;stroke-linejoin:round;stroke-miterlimit:10;}
	.st4{fill:none;stroke:#1A171B;stroke-width:6;stroke-linecap:round;stroke-linejoin:round;stroke-miterlimit:10;}
	.st5{fill:#269CD7;stroke:#232323;stroke-width:6;stroke-linecap:round;stroke-linejoin:round;stroke-miterlimit:10;}
	.st6{fill:none;stroke:#231F20;stroke-width:6;stroke-linecap:round;stroke-linejoin:round;stroke-miterlimit:10;}
	.st7{fill:#232323;}
	.st8{fill:none;stroke:#1E1E1E;stroke-width:6;stroke-linecap:round;stroke-linejoin:round;stroke-miterlimit:10;}
	.st9{fill:#D4EBF7;}
	.st10{fill:none;stroke:#000000;stroke-width:6;stroke-linecap:round;stroke-linejoin:round;stroke-miterlimit:10;}
	.st11{fill:#A8D7EF;stroke:#000000;stroke-width:6;stroke-linecap:round;stroke-linejoin:round;stroke-miterlimit:10;}
	.st12{fill:#99C2AE;stroke:#000000;stroke-width:6;stroke-linecap:round;stroke-linejoin:round;stroke-miterlimit:10;}
	.st13{fill:#FFFFFF;stroke:#000000;stroke-width:6;stroke-linecap:round;stroke-linejoin:round;stroke-miterlimit:10;}
	.st14{fill:#D9E8E1;stroke:#000000;stroke-width:6;stroke-linecap:round;stroke-linejoin:round;stroke-miterlimit:10;}
	.st15{fill:#FFFFFF;stroke:#231F20;stroke-width:6;stroke-linecap:round;stroke-linejoin:round;stroke-miterlimit:10;}
	.st16{fill:#9FD3EE;stroke:#231F20;stroke-width:6;stroke-linecap:round;stroke-linejoin:round;stroke-miterlimit:10;}
	.st17{fill:#99C2AE;}
	.st18{fill:#D9E8E1;stroke:#1A171B;stroke-width:6;stroke-linecap:round;stroke-linejoin:round;stroke-miterlimit:10;}
	.st19{fill:#FFFFFF;stroke:#1A171B;stroke-width:6;stroke-linecap:round;stroke-linejoin:round;stroke-miterlimit:10;}
	.st20{fill:#BEE1F3;}
	.st21{fill:#FFFFFF;stroke:#232323;stroke-width:6;stroke-miterlimit:10;}
	.st22{fill:none;stroke:#231F20;stroke-width:6;stroke-miterlimit:10;}
	.st23{fill:none;stroke:#000000;stroke-width:6;stroke-miterlimit:10;}
	.st24{fill:#FFFFFF;stroke:#000000;stroke-width:6;stroke-miterlimit:10;}
	.st25{fill:#A8D7EF;}
	.st26{fill:#B3D1C2;stroke:#232323;stroke-width:6;stroke-linecap:round;stroke-linejoin:round;stroke-miterlimit:10;}
	.st27{fill:#8DBAA4;stroke:#232323;stroke-width:6;stroke-linecap:round;stroke-linejoin:round;stroke-miterlimit:10;}
	.st28{fill:none;stroke:#1E1E1E;stroke-width:5.9319;stroke-linecap:round;stroke-linejoin:round;stroke-miterlimit:10;}
	.st29{fill:#FFFFFF;stroke:#1E1E1E;stroke-width:6;stroke-linecap:round;stroke-linejoin:round;stroke-miterlimit:10;}
	.st30{fill:#8DBAA4;stroke:#1E1E1E;stroke-width:6;stroke-linecap:round;stroke-linejoin:round;stroke-miterlimit:10;}
	.st31{fill:#269CD7;stroke:#1E1E1E;stroke-width:6;stroke-linecap:round;stroke-linejoin:round;stroke-miterlimit:10;}
	.st32{fill:none;stroke:#8AB9A2;stroke-width:6;stroke-linecap:round;stroke-linejoin:round;stroke-miterlimit:10;}
	.st33{fill:none;stroke:#8DBAA4;stroke-width:6;stroke-linecap:round;stroke-linejoin:round;stroke-miterlimit:10;}
	.st34{fill:none;stroke:#269CD7;stroke-width:6;stroke-linecap:round;stroke-linejoin:round;stroke-miterlimit:10;}
</style>
<line class="st8" x1="315" y1="119.3" x2="315" y2="63.6"/>
<line class="st8" x1="315" y1="63.6" x2="335.1" y2="82.7"/>
<line class="st8" x1="294.9" y1="82.7" x2="315" y2="63.6"/>
<g>
	<path class="st27" d="M287.9,177.3c2,2.5,2.9,5.7,2.4,8.8c-0.5,3.2-2.4,5.9-5.2,7.6l-100.8,60.2l77.6-88.1c2.1-2.4,5.2-3.8,8.4-3.7
		c3.2,0,6.2,1.5,8.3,4L287.9,177.3z"/>
	<line class="st3" x1="283" y1="171.4" x2="286.9" y2="148.7"/>
	<line class="st3" x1="283" y1="171.4" x2="300.3" y2="157.1"/>
	<line class="st3" x1="283" y1="171.4" x2="307.1" y2="171.8"/>
	<line class="st3" x1="258.2" y1="170.1" x2="269.2" y2="183.4"/>
	<line class="st3" x1="251.3" y1="178.2" x2="258.2" y2="186.6"/>
</g>
<g>
	<g>
		<path class="st3" d="M259.9,295.6c0,13.4-24.3,31.8-24.3,31.8s-24.3-18.4-24.3-31.8s10.9-24.3,24.3-24.3
			C249,271.3,259.9,282.2,259.9,295.6z"/>
		<path class="st3" d="M212.5,288.1c0.9,3.4,5.3,7,8.8,7.8c5.6,1.2,7.7-3.1,12.4-4.4c4.8-1.3,8,3,12.8,3.3c4.6,0.3,9.7-1.1,11.4-5.7
			"/>
	</g>
	<path class="st2" d="M235.6,273.9c9.2,0,17.1,5.7,20.2,13.8c-0.1,0.2-0.3,0.4-0.3,0.6c-1.2,3.3-5.3,4.2-8.8,4
		c-1.5-0.1-3-0.8-4.5-1.6c-2.5-1.2-5.4-2.6-9.1-1.6c-2.2,0.6-3.9,1.7-5.3,2.6c-2.1,1.4-3.5,2.3-5.9,1.7c-2.6-0.6-5.7-3.2-6.7-5.3
		C218.3,279.8,226.3,273.9,235.6,273.9z"/>
</g>
<g>
	<g>
		<path class="st3" d="M313.4,257.7c9.1,9.9,3.7,39.8,3.7,39.8s-30.3,2.9-39.4-7c-9.1-9.9-8.4-25.2,1.4-34.3
			C289,247.2,304.3,247.8,313.4,257.7z"/>
		<path class="st3" d="M273.5,284.2c3,1.9,8.7,1.6,11.8-0.2c5-2.9,3.6-7.4,6.2-11.6c2.7-4.2,7.9-3.3,11.6-6.2
			c3.6-2.8,6.4-7.4,4.5-11.9"/>
	</g>
	<path class="st2" d="M280.8,258.1c6.8-6.2,16.4-7.3,24.2-3.5c0,0.2,0.1,0.5,0.2,0.7c1.4,3.3-1,6.7-3.8,8.9
		c-1.2,0.9-2.7,1.4-4.4,1.9c-2.7,0.8-5.8,1.7-7.8,5c-1.2,1.9-1.7,3.8-2.1,5.5c-0.6,2.4-1,4-3.2,5.3c-2.3,1.3-6.3,1.5-8.5,0.6
		C272.1,274.2,273.9,264.4,280.8,258.1z"/>
</g>
<rect x="97.6" y="156" class="st5" width="53.3" height="12.3"/>
<path class="st3" d="M86.1,242v69.7c0,10.3,8.3,18.6,18.6,18.6h38.9c10.3,0,18.6-8.3,18.6-18.6"/>
<line class="st3" x1="146.6" y1="168.3" x2="101.8" y2="168.3"/>
<path class="st3" d="M102.2,168.3c0,2.4,0.1,7.3,0,9.3c-0.4,6.3-1.7,12-7.6,24c-6,12-8.5,32-8.5,40.4"/>
<path class="st3" d="M146.2,169.2c0,2.5-0.1,7.1,0,9c0.4,6.3,1.7,12,7.6,24c6,12,8.5,32,8.5,40.4"/>
<line class="st3" x1="162.3" y1="242" x2="162.3" y2="311.7"/>
<line class="st3" x1="102.3" y1="179.3" x2="129.7" y2="179.3"/>
<path class="st2" d="M88.7,250.3v61.4c0,8.9,7.2,16.1,16.1,16.1h38.9c8.9,0,16.1-7.2,16.1-16.1v-61.4H88.7z"/>
</svg>
