<?xml version="1.0" encoding="utf-8"?>
<!-- Generator: Adobe Illustrator 21.0.2, SVG Export Plug-In . SVG Version: 6.00 Build 0)  -->
<svg version="1.1" id="Layer_1" xmlns="http://www.w3.org/2000/svg" xmlns:xlink="http://www.w3.org/1999/xlink" x="0px" y="0px"
	 width="400px" height="400px" viewBox="0 0 400 400" style="enable-background:new 0 0 400 400;" xml:space="preserve">
<style type="text/css">
	.st0{fill:none;stroke:#1E1E1E;stroke-width:5.9319;stroke-linecap:round;stroke-linejoin:round;stroke-miterlimit:10;}
	.st1{fill:none;stroke:#232323;stroke-width:6;stroke-linecap:round;stroke-linejoin:round;stroke-miterlimit:10;}
	.st2{fill:#009EE5;}
	.st3{fill:#8CBAA3;}
	.st4{fill:none;stroke:#231F20;stroke-width:6;stroke-linecap:round;stroke-linejoin:round;stroke-miterlimit:10;}
	.st5{fill:#232323;stroke:#232323;stroke-width:2;stroke-miterlimit:10;}
	.st6{fill:none;stroke:#231F20;stroke-width:6.095;stroke-linecap:round;stroke-linejoin:round;}
	.st7{fill:#FFFFFF;stroke:#232323;stroke-width:6;stroke-linecap:round;stroke-linejoin:round;stroke-miterlimit:10;}
	.st8{fill:#232323;}
	.st9{fill:#8CBAA3;stroke:#232323;stroke-width:6;stroke-linecap:round;stroke-linejoin:round;stroke-miterlimit:10;}
	.st10{fill:#009EE5;stroke:#232323;stroke-width:6;stroke-linecap:round;stroke-linejoin:round;stroke-miterlimit:10;}
	.st11{fill:none;stroke:#8AB9A1;stroke-width:6;stroke-linecap:round;stroke-linejoin:round;stroke-miterlimit:10;}
	.st12{fill:none;stroke:#009EE5;stroke-width:6;stroke-linecap:round;stroke-linejoin:round;stroke-miterlimit:10;}
	.st13{fill:none;stroke:#1E1E1E;stroke-width:6;stroke-linecap:round;stroke-linejoin:round;stroke-miterlimit:10;}
	.st14{fill:none;stroke:#8CBAA3;stroke-width:6;stroke-linecap:round;stroke-linejoin:round;stroke-miterlimit:10;}
	.st15{fill:#1E1E1E;}
	.st16{fill:#FFFFFF;}
	.st17{fill:#232323;stroke:#1E1E1E;stroke-miterlimit:10;}
	.st18{fill:#8E8E8E;}
	.st19{fill:#C4C4C4;}
	.st20{fill:#1E1E1E;stroke:#1E1E1E;stroke-width:2;stroke-miterlimit:10;}
	.st21{fill:#1E1E1E;stroke:#1E1E1E;stroke-width:3;stroke-miterlimit:10;}
	.st22{fill:#8CBAA3;stroke:#1E1E1E;stroke-width:6;stroke-linecap:round;stroke-linejoin:round;stroke-miterlimit:10;}
	.st23{fill:#99D8F5;stroke:#232323;stroke-width:6;stroke-linecap:round;stroke-linejoin:round;stroke-miterlimit:10;}
	.st24{fill:#99C2AD;}
	.st25{fill:#FFFFFF;stroke:#000000;stroke-width:6;stroke-linecap:round;stroke-linejoin:round;stroke-miterlimit:10;}
	.st26{fill:none;stroke:#000000;stroke-width:6;stroke-linecap:round;stroke-linejoin:round;stroke-miterlimit:10;}
	.st27{fill:#99D8F5;stroke:#000000;stroke-width:6;stroke-miterlimit:10;}
	.st28{fill:#8CBAA3;stroke:#000000;stroke-width:6;stroke-miterlimit:10;}
</style>
<g>
	<line class="st1" x1="303" y1="63.6" x2="303" y2="119.3"/>
	<polyline class="st1" points="323.1,100.1 303,119.3 282.9,100.1 	"/>
</g>
<path class="st2" d="M183.8,217.6c-27.3,0-33.8-13.7-33.8-30.6c0-16.9,4.1-30.6,33.8-30.6h15.8v-15.2h-78.1
	c-13.5,0-24.5,11-24.5,24.5v148.2c0,13.5,11,24.5,24.5,24.5h78.1V217.6H183.8z"/>
<path class="st1" d="M302.7,313.6c0,12.5-10.2,22.7-22.7,22.7H120.2c-12.5,0-22.7-10.2-22.7-22.7V161.8c0-12.5,10.2-22.7,22.7-22.7
	H280c12.5,0,22.7,10.2,22.7,22.7V313.6z"/>
<g>
	<path class="st3" d="M219.4,154.4h-19.2v61.2h19.2c16.9,0,30.6-13.7,30.6-30.6C250,168.1,236.3,154.4,219.4,154.4z"/>
	<path class="st1" d="M249.6,192.9c0,12.5-10.2,22.7-22.7,22.7h-54.3c-12.5,0-22.7-10.2-22.7-22.7v-15.8c0-12.5,10.2-22.7,22.7-22.7
		H227c12.5,0,22.7,10.2,22.7,22.7V192.9z"/>
	<line class="st1" x1="199.8" y1="215.6" x2="182.5" y2="185"/>
	<line class="st1" x1="199.8" y1="155" x2="199.8" y2="164.2"/>
	<line class="st1" x1="174.5" y1="155" x2="182.5" y2="168.8"/>
	<line class="st1" x1="153" y1="171.8" x2="169.8" y2="181.5"/>
	<line class="st1" x1="155.2" y1="198.8" x2="165.2" y2="198.8"/>
	<line class="st1" x1="244.4" y1="198.8" x2="234.4" y2="198.8"/>
	<line class="st1" x1="246.6" y1="171.8" x2="229.8" y2="181.5"/>
	<line class="st1" x1="225.1" y1="155" x2="217.1" y2="168.8"/>
</g>
<line class="st1" x1="199.6" y1="256.8" x2="199.6" y2="336.3"/>
<path class="st1" d="M194.2,214.1c0-2.9,2.4-5.3,5.3-5.3c2.9,0,5.3,2.4,5.3,5.3"/>
</svg>
