<?xml version="1.0" encoding="utf-8"?>
<!-- Generator: Adobe Illustrator 22.0.0, SVG Export Plug-In . SVG Version: 6.00 Build 0)  -->
<svg version="1.1" id="Layer_1" xmlns="http://www.w3.org/2000/svg" xmlns:xlink="http://www.w3.org/1999/xlink" x="0px" y="0px"
	 viewBox="0 0 400 400" style="enable-background:new 0 0 400 400;" xml:space="preserve">
<style type="text/css">
	.st0{fill:#8AB9A2;}
	.st1{fill:#269CD7;}
	.st2{fill:#8DBAA4;}
	.st3{fill:none;stroke:#232323;stroke-width:6;stroke-linecap:round;stroke-linejoin:round;stroke-miterlimit:10;}
	.st4{fill:none;stroke:#1A171B;stroke-width:6;stroke-linecap:round;stroke-linejoin:round;stroke-miterlimit:10;}
	.st5{fill:#269CD7;stroke:#232323;stroke-width:6;stroke-linecap:round;stroke-linejoin:round;stroke-miterlimit:10;}
	.st6{fill:none;stroke:#231F20;stroke-width:6;stroke-linecap:round;stroke-linejoin:round;stroke-miterlimit:10;}
	.st7{fill:#232323;}
	.st8{fill:none;stroke:#1E1E1E;stroke-width:6;stroke-linecap:round;stroke-linejoin:round;stroke-miterlimit:10;}
	.st9{fill:#D4EBF7;}
	.st10{fill:none;stroke:#000000;stroke-width:6;stroke-linecap:round;stroke-linejoin:round;stroke-miterlimit:10;}
	.st11{fill:#A8D7EF;stroke:#000000;stroke-width:6;stroke-linecap:round;stroke-linejoin:round;stroke-miterlimit:10;}
	.st12{fill:#99C2AE;stroke:#000000;stroke-width:6;stroke-linecap:round;stroke-linejoin:round;stroke-miterlimit:10;}
	.st13{fill:#FFFFFF;stroke:#000000;stroke-width:6;stroke-linecap:round;stroke-linejoin:round;stroke-miterlimit:10;}
	.st14{fill:#D9E8E1;stroke:#000000;stroke-width:6;stroke-linecap:round;stroke-linejoin:round;stroke-miterlimit:10;}
	.st15{fill:#FFFFFF;stroke:#231F20;stroke-width:6;stroke-linecap:round;stroke-linejoin:round;stroke-miterlimit:10;}
	.st16{fill:#9FD3EE;stroke:#231F20;stroke-width:6;stroke-linecap:round;stroke-linejoin:round;stroke-miterlimit:10;}
	.st17{fill:#99C2AE;}
	.st18{fill:#D9E8E1;stroke:#1A171B;stroke-width:6;stroke-linecap:round;stroke-linejoin:round;stroke-miterlimit:10;}
	.st19{fill:#FFFFFF;stroke:#1A171B;stroke-width:6;stroke-linecap:round;stroke-linejoin:round;stroke-miterlimit:10;}
	.st20{fill:#BEE1F3;}
	.st21{fill:#FFFFFF;stroke:#232323;stroke-width:6;stroke-miterlimit:10;}
	.st22{fill:none;stroke:#231F20;stroke-width:6;stroke-miterlimit:10;}
	.st23{fill:none;stroke:#000000;stroke-width:6;stroke-miterlimit:10;}
	.st24{fill:#FFFFFF;stroke:#000000;stroke-width:6;stroke-miterlimit:10;}
	.st25{fill:#A8D7EF;}
	.st26{fill:#B3D1C2;stroke:#232323;stroke-width:6;stroke-linecap:round;stroke-linejoin:round;stroke-miterlimit:10;}
	.st27{fill:#8DBAA4;stroke:#232323;stroke-width:6;stroke-linecap:round;stroke-linejoin:round;stroke-miterlimit:10;}
	.st28{fill:none;stroke:#1E1E1E;stroke-width:5.9319;stroke-linecap:round;stroke-linejoin:round;stroke-miterlimit:10;}
	.st29{fill:#FFFFFF;stroke:#1E1E1E;stroke-width:6;stroke-linecap:round;stroke-linejoin:round;stroke-miterlimit:10;}
	.st30{fill:#8DBAA4;stroke:#1E1E1E;stroke-width:6;stroke-linecap:round;stroke-linejoin:round;stroke-miterlimit:10;}
	.st31{fill:#269CD7;stroke:#1E1E1E;stroke-width:6;stroke-linecap:round;stroke-linejoin:round;stroke-miterlimit:10;}
	.st32{fill:none;stroke:#8AB9A2;stroke-width:6;stroke-linecap:round;stroke-linejoin:round;stroke-miterlimit:10;}
	.st33{fill:none;stroke:#8DBAA4;stroke-width:6;stroke-linecap:round;stroke-linejoin:round;stroke-miterlimit:10;}
	.st34{fill:none;stroke:#269CD7;stroke-width:6;stroke-linecap:round;stroke-linejoin:round;stroke-miterlimit:10;}
</style>
<g>
	<path class="st9" d="M206.2,287.5c0,0,12.5,10.3,5.6,26.5c-6.9,16.2-26.9,13.9-42.3,8.6c-15.4-5.3-57.7-17.9-59.1-79.7
		c0,0,9.5-23.8,27.4-17.7c17.9,6.1,16.2,18.6,16.5,28.8c0.3,10.2,14.2,30.3,47.3,30.7C205.1,284.7,206.2,287.5,206.2,287.5z"/>
	<path class="st10" d="M192.5,282.6c12,0,21.7,9.7,21.7,21.6c0,12-9.7,21.7-21.6,21.7c-0.6,0-1.2,0-1.8-0.1"/>
	<path class="st10" d="M110.6,246.6c0-12,9.7-21.7,21.6-21.7c12,0,21.7,9.7,21.7,21.6c0,0.6,0,3,0,3s-0.5,31.1,34.8,33"/>
	<path class="st10" d="M110.6,250.8c0,0-1,70.9,81.9,75.1"/>
	<path class="st11" d="M217.2,316.3c-2.5-0.3-4.2-2.6-3.9-5.1l0.9-6.5c0.3-2.5,2.6-4.2,5.1-3.9l0,0c2.5,0.3,4.2,2.6,3.9,5.1
		l-0.9,6.5C222,314.9,219.7,316.6,217.2,316.3L217.2,316.3z"/>
	<path class="st11" d="M136.3,219.7c0.3,2.5-1.5,4.7-4,5l-6.5,0.8c-2.5,0.3-4.7-1.5-5-4l0,0c-0.3-2.5,1.5-4.7,4-5l6.5-0.8
		C133.7,215.4,136,217.2,136.3,219.7L136.3,219.7z"/>
	<path class="st10" d="M199,299.1c-0.9-1.3-3.5-2.8-5.6-2.5"/>
	<path class="st10" d="M122.9,247.5c0,0-1.4-5.9,3.8-8.1"/>
</g>
<g>
	<path class="st12" d="M309.2,161.1c3.7,22.5,3.9,32.7-3.1,44.3c-14.7,24.2-90.9,74.7-102.1,49l-3.4-12.3"/>
	<path class="st13" d="M238.3,188.2c2.6-15.8,6.7-48.7,38.3-51.2c31.6-2.5,42.2,36,27.5,60.2c-14.7,24.2-90.9,74.7-102.1,49
		c-8.2-18.9,10.3-28.3,20.9-33.6C232.8,207.7,237.4,193.4,238.3,188.2z"/>
	<path class="st14" d="M248.7,194.6c1.7-11.8,4.3-38.7,25.5-40.3c21.2-1.6,28.3,24.4,18.5,40.7c-9.9,16.3-67.4,56-73.8,40.9
		c-4.8-11.5,8.8-17.8,15.8-21.4C244.5,209.4,248.2,198.2,248.7,194.6z"/>
	<path class="st10" d="M282,174.3c-1.1,4.4-5.3,7.2-9.3,6.2s-6.4-5.4-5.3-9.8c1.1-4.4,5.3-7.2,9.3-6.2
		C280.7,165.5,283.1,169.9,282,174.3z"/>
	<line class="st6" x1="226.9" y1="231.9" x2="233.7" y2="228.1"/>
</g>
<g>
	<path class="st15" d="M88.1,160.1l73.7-37.2c0,0,11.7,6.1,45.1,25.1v41.4l-118.9,9.9V160.1z"/>
	<polygon class="st16" points="207,175.2 88.1,186 88.1,175.2 207,164.4 	"/>
	<path class="st17" d="M204.9,148.1l-43-23.8l-68.3,34.2l-5.5,2.1l33.5-2.2c0,0-0.2,8.7,0.1,12.4c0.2,2.2-0.5,7.2,6.2,7.2
		c6.3,0,6.6-6.7,6.6-6.7s0.1-6,0.2-8c0.1-1.9,1.4-5.2,6.5-4.8c8.6,0.7,1.2,16.4,9.8,16.6c6.8,0.2,7.2-3,7-7.7c-0.1-1.8-0.1-5,0-7.4
		c0.1-1.8,0.5-5.5,5.8-6c5-0.5,5.4,3.4,6.3,5.2c0.9,1.9,2.6,4,6.5,3.2c6.1-1.2,6.9-10.8,6.9-10.8l21.3-2.6V148.1z"/>
	<path class="st6" d="M88.1,160.1l33.5-2.2c0,0-0.2,8.7,0.1,12.4c0.2,2.2-0.5,7.2,6.2,7.2c6.3,0,6.6-6.7,6.6-6.7s0.1-6,0.2-8
		c0.1-1.9,1.4-5.2,6.5-4.8c8.6,0.7,1.2,16.4,9.8,16.6c6.8,0.2,7.2-3,7-7.7c-0.1-1.8-0.1-5,0-7.4c0.1-1.8,0.5-5.5,5.8-6
		c5-0.5,5.4,3.4,6.3,5.2c0.9,1.9,2.6,4,6.5,3.2c6.1-1.2,6.9-10.8,6.9-10.8l23.5-2.9"/>
	<line class="st6" x1="161" y1="131.7" x2="156" y2="133.9"/>
</g>
<g>
	<line class="st8" x1="315" y1="63.6" x2="315" y2="119.3"/>
	<polyline class="st8" points="335.1,100.1 315,119.3 294.9,100.1 	"/>
</g>
</svg>
